<?xml version="1.0" encoding="utf-8"?>
<!-- Generator: Adobe Illustrator 15.0.2, SVG Export Plug-In . SVG Version: 6.00 Build 0)  -->
<!DOCTYPE svg PUBLIC "-//W3C//DTD SVG 1.1//EN" "http://www.w3.org/Graphics/SVG/1.1/DTD/svg11.dtd">
<svg version="1.1" id="Шар_1" xmlns="http://www.w3.org/2000/svg" xmlns:xlink="http://www.w3.org/1999/xlink" x="0px" y="0px"
	 width="100px" height="70.5px" viewBox="0 0 100 70.5" enable-background="new 0 0 100 70.5" xml:space="preserve">
<g>
	<circle fill="#FFFFFF" cx="35.113" cy="49.342" r="1.135"/>
	<circle fill="#FFFFFF" cx="47.08" cy="49.342" r="1.135"/>
	<path fill="#FFFFFF" d="M76.008,44.314c-2.777,0-5.027,2.25-5.027,5.028s2.25,5.027,5.027,5.027s5.027-2.252,5.027-5.027
		C81.035,46.566,78.785,44.314,76.008,44.314z M76.008,51.63c-1.264,0-2.287-1.022-2.287-2.287c0-1.264,1.023-2.288,2.287-2.288
		s2.287,1.024,2.287,2.288C78.295,50.607,77.271,51.63,76.008,51.63z"/>
	<circle fill="#FFFFFF" cx="76.008" cy="49.342" r="1.135"/>
	<path fill="#FFFFFF" d="M79.74,35.773l-2.075-5.924c-0.621-1.774-1.903-3.163-4.46-3.163h-3.232v-6.662
		c0-2.147-1.746-3.894-3.894-3.894H23.09c-2.147,0-3.895,1.747-3.895,3.894l-0.009,25.615l0.01,0.004h-0.009
		c0,0.756,0.612,1.367,1.367,1.367h3.941c0.089,1.432,1.274,2.564,2.728,2.564h1.893c-0.002-0.077-0.005-0.154-0.005-0.231
		c0-0.827,0.168-1.616,0.472-2.332h1.077c-0.365,0.697-0.573,1.49-0.573,2.332c0,2.776,2.251,5.027,5.028,5.027
		c2.776,0,5.027-2.252,5.027-5.027c0-0.843-0.208-1.636-0.574-2.332h3.059c-0.365,0.697-0.573,1.49-0.573,2.332
		c0,2.776,2.251,5.027,5.027,5.027s5.028-2.252,5.028-5.027c0-0.843-0.209-1.636-0.574-2.332h1.078
		c0.303,0.718,0.472,1.505,0.472,2.332c0,0.077-0.003,0.154-0.006,0.231h16.987c-0.004-0.077-0.006-0.154-0.006-0.231
		c0-3.284,2.662-5.948,5.946-5.948s5.947,2.664,5.947,5.948c0,0.077-0.004,0.154-0.006,0.231h0.75c1.512,0,2.735-0.7,2.735-5.092
		C85.436,38.788,81.252,35.773,79.74,35.773z M35.113,51.63c-1.264,0-2.288-1.022-2.288-2.287c0-1.264,1.024-2.288,2.288-2.288
		c1.264,0,2.288,1.024,2.288,2.288C37.401,50.607,36.376,51.63,35.113,51.63z M47.08,51.63c-1.264,0-2.288-1.022-2.288-2.287
		c0-1.264,1.024-2.288,2.288-2.288s2.288,1.024,2.288,2.288C49.368,50.607,48.344,51.63,47.08,51.63z M67.656,35.773v7.547
		c-5.023,0.01-13.584,0.004-22.252-0.002c-5.622-0.004-11.288-0.008-16.065-0.008c-1.751,0-3.383,0-4.85,0.002
		c-1.093,0.002-2.094,0.002-2.984,0.004l0.009-23.292c0-0.87,0.708-1.577,1.577-1.577h42.99c0.869,0,1.577,0.707,1.577,1.577
		L67.656,35.773L67.656,35.773z M69.973,35.773v-7.351h3.232c1.76,0,2.447,0.935,2.82,2l1.873,5.351H69.973z"/>
</g>
</svg>
